<svg width="28" height="36" viewBox="0 0 28 36" fill="none" xmlns="http://www.w3.org/2000/svg">
<path d="M8.3125 5.875H4.25C3.38805 5.875 2.5614 6.21741 1.9519 6.8269C1.34241 7.4364 1 8.26305 1 9.125V31.875C1 32.737 1.34241 33.5636 1.9519 34.1731C2.5614 34.7826 3.38805 35.125 4.25 35.125H23.75C24.612 35.125 25.4386 34.7826 26.0481 34.1731C26.6576 33.5636 27 32.737 27 31.875V9.125C27 8.26305 26.6576 7.4364 26.0481 6.8269C25.4386 6.21741 24.612 5.875 23.75 5.875H19.6875" stroke="black" stroke-width="1.5" stroke-linecap="round"/>
<path d="M7.5 9.775V6.6875C7.5 6.47201 7.5856 6.26535 7.73798 6.11298C7.89035 5.9606 8.09701 5.875 8.3125 5.875C8.761 5.875 9.1315 5.511 9.2095 5.069C9.45 3.6845 10.3827 1 14 1C17.6173 1 18.55 3.6845 18.7905 5.069C18.8685 5.511 19.239 5.875 19.6875 5.875C19.903 5.875 20.1097 5.9606 20.262 6.11298C20.4144 6.26535 20.5 6.47201 20.5 6.6875V9.775C20.5 10.0336 20.3973 10.2816 20.2144 10.4644C20.0316 10.6473 19.7836 10.75 19.525 10.75H8.475C8.21641 10.75 7.96842 10.6473 7.78557 10.4644C7.60272 10.2816 7.5 10.0336 7.5 9.775Z" stroke="black" stroke-width="1.5" stroke-linecap="round"/>
</svg>
