<svg width="31" height="20" viewBox="0 0 31 20" fill="none" xmlns="http://www.w3.org/2000/svg">
<path d="M9.15909 0C11.8786 0 14.0909 2.24286 14.0909 5C14.0909 7.75714 11.8786 10 9.15909 10C6.43955 10 4.22727 7.75714 4.22727 5C4.22727 2.24286 6.43955 0 9.15909 0ZM0 20V16.4286C0 13.6714 4.87545 11.4286 9.15909 11.4286C10.8218 11.4286 12.5691 11.7714 14.0909 12.3429V20H0ZM29.5909 20H18.3182C17.5432 20 16.9091 19.3571 16.9091 18.5714V1.42857C16.9091 0.642857 17.5432 0 18.3182 0H25.3636L31 5.71429V18.5714C31 19.3571 30.3659 20 29.5909 20ZM23.9545 7.14286H28.1818V6.9L24.1941 2.85714H23.9545V7.14286Z" fill="#DFE2E8"/>
</svg>
