<svg width="31" height="24" viewBox="0 0 31 24" fill="none" xmlns="http://www.w3.org/2000/svg">
<path d="M0 22.9091C0 23.1984 0.116645 23.4759 0.324275 23.6805C0.531904 23.8851 0.81351 24 1.10714 24H29.8929C30.1865 24 30.4681 23.8851 30.6757 23.6805C30.8834 23.4759 31 23.1984 31 22.9091V9.68182H0V22.9091ZM4.56696 13.5C4.56696 13.3553 4.62529 13.2166 4.7291 13.1143C4.83292 13.012 4.97372 12.9545 5.12054 12.9545H11.4866C11.6334 12.9545 11.7742 13.012 11.878 13.1143C11.9819 13.2166 12.0402 13.3553 12.0402 13.5V17.8636C12.0402 18.0083 11.9819 18.147 11.878 18.2493C11.7742 18.3516 11.6334 18.4091 11.4866 18.4091H5.12054C4.97372 18.4091 4.83292 18.3516 4.7291 18.2493C4.62529 18.147 4.56696 18.0083 4.56696 17.8636V13.5ZM29.8929 0H1.10714C0.81351 0 0.531904 0.114935 0.324275 0.31952C0.116645 0.524105 0 0.801582 0 1.09091V5.59091H31V1.09091C31 0.801582 30.8834 0.524105 30.6757 0.31952C30.4681 0.114935 30.1865 0 29.8929 0Z" fill="#DFE2E8"/>
</svg>
