<svg width="31" height="35" viewBox="0 0 31 35" fill="none" xmlns="http://www.w3.org/2000/svg">
<path d="M0 11.6667H3.875V0H7.75L14.3763 11.6667H23.25V0H27.125V11.6667H31V15.5556H27.125V19.4444H31V23.3333H27.125V35H23.25L16.6044 23.3333H7.75V35H3.875V23.3333H0V19.4444H3.875V15.5556H0V11.6667ZM7.75 11.6667H9.93937L7.75 7.83611V11.6667ZM7.75 15.5556V19.4444H14.3763L12.1675 15.5556H7.75ZM23.25 27.2222V23.3333H21.0219L23.25 27.2222ZM16.585 15.5556L18.8131 19.4444H23.25V15.5556H16.585Z" fill="#DFE2E8"/>
</svg>
