<svg width="31" height="31" viewBox="0 0 31 31" fill="none" xmlns="http://www.w3.org/2000/svg">
<path fill-rule="evenodd" clip-rule="evenodd" d="M0 15.5C0 19.6109 1.63303 23.5533 4.53984 26.4602C7.44666 29.367 11.3891 31 15.5 31C19.6109 31 23.5533 29.367 26.4602 26.4602C29.367 23.5533 31 19.6109 31 15.5C31 11.3891 29.367 7.44666 26.4602 4.53984C23.5533 1.63303 19.6109 0 15.5 0C11.3891 0 7.44666 1.63303 4.53984 4.53984C1.63303 7.44666 0 11.3891 0 15.5ZM28.3429 15.5C28.3429 18.9061 26.9898 22.1728 24.5813 24.5813C22.1728 26.9898 18.9061 28.3429 15.5 28.3429C12.0939 28.3429 8.82723 26.9898 6.41873 24.5813C4.01023 22.1728 2.65714 18.9061 2.65714 15.5C2.65714 12.0939 4.01023 8.82723 6.41873 6.41873C8.82723 4.01023 12.0939 2.65714 15.5 2.65714C18.9061 2.65714 22.1728 4.01023 24.5813 6.41873C26.9898 8.82723 28.3429 12.0939 28.3429 15.5Z" fill="#DFE2E8"/>
<path fill-rule="evenodd" clip-rule="evenodd" d="M8.85547 15.5C8.85547 23.5104 11.4967 30.1143 15.4983 30.1143C19.5 30.1143 22.1412 23.5104 22.1412 15.5C22.1412 7.48963 19.5 0.885742 15.4983 0.885742C11.4967 0.885742 8.85547 7.48963 8.85547 15.5ZM19.484 15.5C19.484 22.1641 17.3672 27.4572 15.4983 27.4572C13.6295 27.4572 11.5126 22.1641 11.5126 15.5C11.5126 8.83591 13.6295 3.54289 15.4983 3.54289C17.3672 3.54289 19.484 8.83591 19.484 15.5Z" fill="#DFE2E8"/>
<path d="M4.1674 7.47032L5.94946 5.50049C6.1266 5.65992 6.31969 5.81935 6.52518 5.97346C8.77666 7.65986 12.3709 8.70146 16.2946 8.70146C19.6444 8.70146 22.7656 7.94506 25.0295 6.65015C25.5751 6.33837 26.0605 6.00003 26.4803 5.64043L28.2057 7.66163C27.6293 8.15055 27.0076 8.58355 26.3492 8.95477C23.6637 10.4924 20.089 11.3568 16.2946 11.3568C11.8271 11.3568 7.6766 10.1558 4.93089 8.09917C4.66687 7.90139 4.41211 7.69155 4.1674 7.47032ZM4.1674 23.5584L5.94946 25.5283C6.1266 25.3671 6.31969 25.2094 6.52518 25.0553C8.77666 23.3689 12.3709 22.3273 16.2946 22.3273C19.6444 22.3273 22.7656 23.0837 25.0295 24.3786C25.5751 24.6904 26.0605 25.0287 26.4803 25.3883L28.2057 23.3671C27.6286 22.8791 27.007 22.4462 26.3492 22.074C23.6637 20.5364 20.089 19.6719 16.2946 19.6719C11.8271 19.6719 7.6766 20.8729 4.93089 22.9296C4.66687 23.1274 4.4121 23.3372 4.1674 23.5584ZM0.886719 16.8288V14.1716H30.1153V16.8288H0.886719Z" fill="#DFE2E8"/>
</svg>
