<svg width="31" height="39" viewBox="0 0 31 39" fill="none" xmlns="http://www.w3.org/2000/svg">
<path d="M19.375 0H3.875C1.72438 0 0 1.7355 0 3.9V35.1C0 37.2645 1.72438 39 3.875 39H27.125C29.2756 39 31 37.2645 31 35.1V11.7L19.375 0ZM25.1875 34.008C25.1875 34.6125 24.7031 35.1 24.1025 35.1C14.0081 35.1 5.8125 26.8515 5.8125 16.692C5.8125 16.0875 6.29688 15.6 6.8975 15.6H10.6562C11.2569 15.6 11.7413 16.0875 11.7413 16.692C11.7413 18.0375 11.9544 19.344 12.3419 20.553C12.4581 20.9235 12.3806 21.3525 12.0706 21.6645L9.6875 24.0435C11.2569 27.105 13.7563 29.6205 16.7981 31.2L19.1812 28.8015C19.4719 28.4895 19.8981 28.4115 20.2663 28.5285C21.4675 28.9185 22.7656 29.1525 24.1219 29.1525C24.7031 29.1525 25.1875 29.6205 25.1875 30.225V34.008ZM17.4375 13.65V2.925L28.0938 13.65H17.4375Z" fill="#DFE2E8"/>
</svg>
