<svg width="31" height="31" viewBox="0 0 31 31" fill="none" xmlns="http://www.w3.org/2000/svg">
<path d="M31 15.5C31 19.6109 29.367 23.5533 26.4602 26.4602C23.5533 29.367 19.6109 31 15.5 31C11.3891 31 7.44666 29.367 4.53984 26.4602C1.63303 23.5533 0 19.6109 0 15.5C0 11.3891 1.63303 7.44666 4.53984 4.53984C7.44666 1.63303 11.3891 0 15.5 0C19.6109 0 23.5533 1.63303 26.4602 4.53984C29.367 7.44666 31 11.3891 31 15.5ZM10.6562 7.75387V23.25H13.2428V17.2902H16.5075L19.3362 23.25H22.2812L19.096 16.8582C20.7003 16.2789 21.9926 14.725 21.9926 12.5221C21.9926 9.63906 19.9969 7.75387 16.6838 7.75387H10.6562ZM13.2428 9.86575V15.2462H16.244C18.1718 15.2462 19.2917 14.3491 19.2917 12.6112C19.2917 10.8422 18.1369 9.86575 16.3137 9.86575H13.2428Z" fill="#C74923"/>
</svg>
