<svg width="23" height="24" viewBox="0 0 23 24" fill="none" xmlns="http://www.w3.org/2000/svg">
<path fill-rule="evenodd" clip-rule="evenodd" d="M0 12C0 8.8174 1.2116 5.76516 3.36827 3.51472C5.52494 1.26428 8.45001 0 11.5 0C14.55 0 17.4751 1.26428 19.6317 3.51472C21.7884 5.76516 23 8.8174 23 12C23 15.1826 21.7884 18.2348 19.6317 20.4853C17.4751 22.7357 14.55 24 11.5 24C8.45001 24 5.52494 22.7357 3.36827 20.4853C1.2116 18.2348 0 15.1826 0 12ZM10.8437 17.136L17.4647 8.4992L16.2687 7.5008L10.6229 14.8624L6.624 11.3856L5.64267 12.6144L10.8437 17.136Z" fill="#49C469"/>
</svg>
