<svg width="31" height="31" viewBox="0 0 31 31" fill="none" xmlns="http://www.w3.org/2000/svg">
<path d="M15.5 0C6.93949 0 0 6.93949 0 15.5C0 24.0605 6.93949 31 15.5 31C24.0605 31 31 24.0605 31 15.5C31 6.93949 24.0605 0 15.5 0ZM16.8384 23.9037V26.0868H14.7503V23.9283C11.3237 23.459 9.82321 20.6436 9.82321 20.6436L11.9561 18.8594C11.9561 18.8594 13.318 21.2301 15.7815 21.2301C17.1424 21.2301 18.1747 20.5017 18.1747 19.2572C18.1747 16.3478 10.3362 16.7008 10.3362 11.3035C10.3362 8.95724 12.1918 7.26689 14.7492 6.86697V4.68605H16.8373V6.86697C18.6205 7.10159 20.7321 8.04008 20.7321 10.0589V11.6074H17.9635V10.8566C17.9635 10.0824 16.9771 9.56619 15.8733 9.56619C14.4655 9.56619 13.4343 10.2701 13.4343 11.2555C13.4343 14.2352 21.2728 13.5078 21.2728 19.1633C21.2728 21.4882 19.5366 23.5038 16.8384 23.9037Z" fill="#DFE2E8"/>
</svg>
