<svg width="29" height="27" viewBox="0 0 29 27" fill="none" xmlns="http://www.w3.org/2000/svg">
<path fill-rule="evenodd" clip-rule="evenodd" d="M28.2617 20.9147C28.3133 20.9126 28.3647 20.9227 28.4117 20.9442C28.4587 20.9658 28.5 20.9981 28.5321 21.0385C28.5643 21.079 28.5865 21.1265 28.5968 21.1771C28.6072 21.2277 28.6055 21.2801 28.5918 21.33C28.293 22.3936 27.8165 23.3019 27.0531 24.0638C25.9342 25.1842 24.5165 25.6787 22.7656 25.9148C21.0626 26.1433 18.8889 26.1433 16.1431 26.1433H12.988C10.2422 26.1433 8.06708 26.1433 6.36553 25.9148C4.61467 25.6787 3.19695 25.1827 2.07802 24.0653C0.96058 22.9464 0.464604 21.5286 0.228567 19.7778C1.78087e-07 18.0747 0 15.9011 0 13.1553V12.988C0 10.2422 1.78087e-07 8.06708 0.228567 6.36403C0.464604 4.61318 0.96058 3.19546 2.07802 2.07653C3.19695 0.959086 4.61467 0.46311 6.36553 0.227073C8.06858 -6.67827e-08 10.2422 0 12.988 0H16.1431C18.8889 0 21.064 1.78087e-07 22.7656 0.228567C24.5165 0.464604 25.9342 0.96058 27.0531 2.07802C27.8165 2.8429 28.293 3.7497 28.5918 4.81336C28.6055 4.86321 28.6072 4.91558 28.5968 4.96621C28.5865 5.01685 28.5643 5.06433 28.5321 5.10479C28.5 5.14525 28.4587 5.17756 28.4117 5.19908C28.3647 5.2206 28.3133 5.23074 28.2617 5.22866H24.4911C20.2529 5.22866 16.5181 8.57501 16.5181 13.0717C16.5181 17.5683 20.2529 20.9147 24.4911 20.9147H28.2617ZM5.60214 5.97562C5.30498 5.97562 5.02 6.09366 4.80988 6.30378C4.59976 6.5139 4.48171 6.79889 4.48171 7.09604C4.48171 7.3932 4.59976 7.67818 4.80988 7.88831C5.02 8.09843 5.30498 8.21647 5.60214 8.21647H11.5778C11.8749 8.21647 12.1599 8.09843 12.37 7.88831C12.5801 7.67818 12.6982 7.3932 12.6982 7.09604C12.6982 6.79889 12.5801 6.5139 12.37 6.30378C12.1599 6.09366 11.8749 5.97562 11.5778 5.97562H5.60214Z" fill="#DFE2E8"/>
</svg>
